<svg width="24" height="25" viewBox="0 0 24 25" fill="none" xmlns="http://www.w3.org/2000/svg">
<path d="M21.6875 22.8984L16.4531 17.6641C17.599 16.2318 18.1849 14.5521 18.2109 12.625C18.1589 10.3333 17.3646 8.41927 15.8281 6.88281C14.2917 5.34635 12.3776 4.55208 10.0859 4.5C7.79427 4.55208 5.88021 5.34635 4.34375 6.88281C2.83333 8.41927 2.05208 10.3333 2 12.625C2.05208 14.9167 2.84635 16.8307 4.38281 18.3672C5.89323 19.9036 7.79427 20.6979 10.0859 20.75C12.0391 20.724 13.7188 20.138 15.125 18.9922L20.3594 24.2266C20.5938 24.4089 20.8281 24.5 21.0625 24.5C21.3229 24.5 21.5443 24.4089 21.7266 24.2266C22.0911 23.7839 22.0781 23.3411 21.6875 22.8984ZM3.875 12.625C3.92708 10.8542 4.53906 9.38281 5.71094 8.21094C6.88281 7.03906 8.35417 6.42708 10.125 6.375C11.8958 6.42708 13.3672 7.03906 14.5391 8.21094C15.7109 9.38281 16.3229 10.8542 16.375 12.625C16.3229 14.3958 15.7109 15.8672 14.5391 17.0391C13.3672 18.2109 11.8958 18.8229 10.125 18.875C8.35417 18.8229 6.88281 18.2109 5.71094 17.0391C4.53906 15.8672 3.92708 14.3958 3.875 12.625Z" fill="black"/>
</svg>
